<svg width="297" height="164" viewBox="0 0 297 164" fill="none" xmlns="http://www.w3.org/2000/svg">
<mask id="path-1-outside-1_6_21" maskUnits="userSpaceOnUse" x="0" y="0" width="297" height="164" fill="black">
<rect fill="white" width="297" height="164"/>
<path d="M63.4395 163V130.651H103.845V1.0127H125.451L157.8 33.3613V130.651L125.451 163H63.4395ZM33.6543 163L1.18359 130.651V33.3613L33.6543 1.0127H95.5439V33.3613H55.1387V163H33.6543ZM214.187 123.205V33.3613H187.209V17.248L203.322 1.0127H268.142V123.205H214.187ZM187.209 163V130.651H295.119V163H187.209Z"/>
</mask>
<path d="M63.4395 163V130.651H103.845V1.0127H125.451L157.8 33.3613V130.651L125.451 163H63.4395ZM33.6543 163L1.18359 130.651V33.3613L33.6543 1.0127H95.5439V33.3613H55.1387V163H33.6543ZM214.187 123.205V33.3613H187.209V17.248L203.322 1.0127H268.142V123.205H214.187ZM187.209 163V130.651H295.119V163H187.209Z" fill="white" fill-opacity="0.11"/>
<path d="M63.4395 163H62.4395V164H63.4395V163ZM63.4395 130.651V129.651H62.4395V130.651H63.4395ZM103.845 130.651V131.651H104.845V130.651H103.845ZM103.845 1.0127V0.0126953H102.845V1.0127H103.845ZM125.451 1.0127L126.158 0.305589L125.865 0.0126953H125.451V1.0127ZM157.8 33.3613H158.8V32.9471L158.507 32.6542L157.8 33.3613ZM157.8 130.651L158.507 131.358L158.8 131.066V130.651H157.8ZM125.451 163V164H125.865L126.158 163.707L125.451 163ZM33.6543 163L32.9485 163.708L33.2412 164H33.6543V163ZM1.18359 130.651H0.183594V131.067L0.47782 131.36L1.18359 130.651ZM1.18359 33.3613L0.47782 32.6529L0.183594 32.946V33.3613H1.18359ZM33.6543 1.0127V0.0126953H33.2412L32.9485 0.304258L33.6543 1.0127ZM95.5439 1.0127H96.5439V0.0126953H95.5439V1.0127ZM95.5439 33.3613V34.3613H96.5439V33.3613H95.5439ZM55.1387 33.3613V32.3613H54.1387V33.3613H55.1387ZM55.1387 163V164H56.1387V163H55.1387ZM63.4395 163H64.4395V130.651H63.4395H62.4395V163H63.4395ZM63.4395 130.651V131.651H103.845V130.651V129.651H63.4395V130.651ZM103.845 130.651H104.845V1.0127H103.845H102.845V130.651H103.845ZM103.845 1.0127V2.0127H125.451V1.0127V0.0126953H103.845V1.0127ZM125.451 1.0127L124.744 1.7198L157.093 34.0684L157.8 33.3613L158.507 32.6542L126.158 0.305589L125.451 1.0127ZM157.8 33.3613H156.8V130.651H157.8H158.8V33.3613H157.8ZM157.8 130.651L157.093 129.944L124.744 162.293L125.451 163L126.158 163.707L158.507 131.358L157.8 130.651ZM125.451 163V162H63.4395V163V164H125.451V163ZM33.6543 163L34.3601 162.292L1.88937 129.943L1.18359 130.651L0.47782 131.36L32.9485 163.708L33.6543 163ZM1.18359 130.651H2.18359V33.3613H1.18359H0.183594V130.651H1.18359ZM1.18359 33.3613L1.88937 34.0698L34.3601 1.72113L33.6543 1.0127L32.9485 0.304258L0.47782 32.6529L1.18359 33.3613ZM33.6543 1.0127V2.0127H95.5439V1.0127V0.0126953H33.6543V1.0127ZM95.5439 1.0127H94.5439V33.3613H95.5439H96.5439V1.0127H95.5439ZM95.5439 33.3613V32.3613H55.1387V33.3613V34.3613H95.5439V33.3613ZM55.1387 33.3613H54.1387V163H55.1387H56.1387V33.3613H55.1387ZM55.1387 163V162H33.6543V163V164H55.1387V163ZM214.187 123.205H213.187V124.205H214.187V123.205ZM214.187 33.3613H215.187V32.3613H214.187V33.3613ZM187.209 33.3613H186.209V34.3613H187.209V33.3613ZM187.209 17.248L186.499 16.5436L186.209 16.836V17.248H187.209ZM203.322 1.0127V0.0126953H202.906L202.612 0.308262L203.322 1.0127ZM268.142 1.0127H269.142V0.0126953H268.142V1.0127ZM268.142 123.205V124.205H269.142V123.205H268.142ZM187.209 163H186.209V164H187.209V163ZM187.209 130.651V129.651H186.209V130.651H187.209ZM295.119 130.651H296.119V129.651H295.119V130.651ZM295.119 163V164H296.119V163H295.119ZM214.187 123.205H215.187V33.3613H214.187H213.187V123.205H214.187ZM214.187 33.3613V32.3613H187.209V33.3613V34.3613H214.187V33.3613ZM187.209 33.3613H188.209V17.248H187.209H186.209V33.3613H187.209ZM187.209 17.248L187.919 17.9525L204.032 1.71713L203.322 1.0127L202.612 0.308262L186.499 16.5436L187.209 17.248ZM203.322 1.0127V2.0127H268.142V1.0127V0.0126953H203.322V1.0127ZM268.142 1.0127H267.142V123.205H268.142H269.142V1.0127H268.142ZM268.142 123.205V122.205H214.187V123.205V124.205H268.142V123.205ZM187.209 163H188.209V130.651H187.209H186.209V163H187.209ZM187.209 130.651V131.651H295.119V130.651V129.651H187.209V130.651ZM295.119 130.651H294.119V163H295.119H296.119V130.651H295.119ZM295.119 163V162H187.209V163V164H295.119V163Z" fill="black" mask="url(#path-1-outside-1_6_21)"/>
</svg>
